<?xml version="1.0" standalone="no"?>
<!DOCTYPE svg PUBLIC "-//W3C//DTD SVG 20010904//EN"
 "http://www.w3.org/TR/2001/REC-SVG-20010904/DTD/svg10.dtd">
<svg version="1.0" xmlns="http://www.w3.org/2000/svg"
 width="1024.000000pt" height="1024.000000pt" viewBox="0 0 1024.000000 1024.000000"
 preserveAspectRatio="xMidYMid meet">
<metadata>
Created by potrace 1.14, written by Peter Selinger 2001-2017
</metadata>
<g transform="translate(0.000000,1024.000000) scale(0.100000,-0.100000)"
fill="#000000" stroke="none">
<path d="M3497 9084 c-1 -1 -54 -5 -118 -8 -64 -4 -127 -9 -140 -11 -13 -2
-55 -6 -92 -10 -37 -3 -78 -8 -90 -11 -24 -5 -54 -9 -132 -19 -27 -3 -57 -8
-65 -10 -8 -2 -29 -7 -47 -10 -322 -54 -741 -193 -1048 -347 -115 -58 -249
-130 -255 -138 -3 -4 -27 -20 -55 -35 -27 -16 -51 -33 -53 -37 -2 -4 -8 -8
-13 -8 -9 0 -88 -48 -99 -60 -3 -3 -54 -41 -115 -85 -60 -43 -114 -84 -120
-90 -5 -6 -32 -29 -60 -51 -259 -202 -543 -541 -691 -824 -91 -173 -181 -404
-199 -512 -3 -18 -10 -49 -15 -68 -49 -187 -68 -591 -35 -770 2 -14 7 -49 10
-79 3 -29 12 -81 20 -115 8 -33 16 -72 19 -86 8 -45 58 -193 96 -290 95 -238
245 -478 438 -704 l73 -84 -74 -149 c-41 -81 -91 -175 -110 -208 -20 -33 -53
-89 -73 -125 -21 -36 -41 -67 -44 -70 -3 -3 -17 -21 -30 -40 -13 -19 -30 -41
-37 -48 -7 -7 -13 -17 -13 -20 0 -4 -10 -18 -22 -32 -13 -14 -39 -45 -59 -70
-20 -25 -68 -79 -108 -120 -39 -41 -78 -90 -87 -109 -34 -70 9 -177 80 -201
31 -10 272 -8 331 4 11 2 51 7 89 11 38 4 79 9 90 11 23 4 33 6 151 30 44 8
117 27 162 40 45 14 90 27 100 29 32 6 236 81 313 115 80 35 252 119 335 165
l50 27 50 -22 c28 -12 62 -28 77 -36 14 -8 33 -14 42 -14 9 0 16 -4 16 -10 0
-5 8 -10 18 -10 10 0 22 -4 28 -9 8 -9 258 -106 294 -115 8 -2 62 -18 120 -35
189 -57 441 -114 600 -137 19 -2 44 -6 55 -9 11 -2 52 -7 90 -10 39 -4 81 -8
95 -11 145 -25 830 -25 993 1 12 2 51 6 86 10 36 3 67 7 70 9 3 2 31 7 61 10
78 9 165 24 290 51 14 3 34 7 45 9 104 21 346 92 490 144 723 261 1393 765
1752 1316 36 55 78 124 94 154 16 30 33 60 37 66 5 6 28 56 52 111 23 55 47
106 53 113 5 6 7 12 4 12 -4 0 6 37 22 83 37 106 76 262 86 349 3 24 7 53 10
66 22 117 23 432 1 598 -12 95 -42 241 -69 349 -9 31 -51 154 -62 180 -7 17
-23 55 -35 85 -20 50 -73 155 -129 254 -62 109 -213 315 -306 416 -426 467
-989 826 -1624 1039 -68 22 -133 41 -145 41 -12 0 -26 4 -31 8 -13 12 -209 60
-308 77 -17 3 -39 8 -48 11 -9 2 -34 7 -55 10 -22 2 -68 9 -104 15 -158 24
-188 28 -270 34 -41 3 -100 8 -130 11 -50 6 -568 13 -573 8z"/>
<path d="M7959 6562 c8 -65 7 -512 -2 -597 -13 -127 -18 -159 -38 -265 -21
-107 -58 -246 -94 -355 -109 -330 -311 -678 -575 -990 -46 -54 -334 -340 -389
-385 -30 -25 -73 -62 -95 -82 -23 -21 -44 -38 -47 -38 -3 0 -19 -12 -35 -26
-16 -14 -40 -33 -54 -42 -14 -9 -43 -31 -65 -48 -60 -47 -300 -205 -380 -250
-38 -21 -83 -47 -100 -56 -59 -35 -242 -126 -325 -162 -47 -21 -94 -41 -105
-46 -185 -83 -605 -213 -815 -254 -14 -2 -61 -12 -105 -20 -44 -9 -100 -19
-125 -22 -25 -3 -52 -7 -60 -9 -8 -2 -37 -7 -65 -10 -27 -4 -60 -8 -73 -10
-13 -2 -53 -7 -90 -10 -37 -4 -78 -8 -91 -10 -55 -9 -311 -19 -491 -19 -222 0
-420 11 -557 29 l-32 5 62 -103 c34 -56 65 -103 70 -105 4 -2 7 -10 7 -18 0
-8 4 -14 8 -14 4 0 20 -19 35 -42 15 -24 38 -56 52 -73 13 -16 28 -34 32 -40
82 -106 270 -303 349 -365 17 -14 60 -49 95 -78 74 -62 74 -62 154 -123 33
-26 85 -61 115 -80 30 -18 57 -36 60 -39 3 -4 12 -10 20 -13 8 -4 29 -16 45
-27 17 -11 46 -28 65 -39 19 -11 60 -34 90 -51 65 -37 335 -170 344 -170 3 0
25 -9 49 -20 127 -58 403 -151 577 -194 126 -31 385 -83 455 -90 28 -4 59 -8
70 -10 31 -6 112 -15 190 -21 39 -3 99 -8 135 -12 144 -14 591 -8 785 12 17 1
66 6 110 10 44 4 83 9 86 11 4 2 38 8 75 14 119 16 150 22 202 34 45 11 159
38 172 41 35 8 99 24 150 40 30 9 84 24 120 34 91 26 334 119 468 180 63 28
119 51 124 51 6 0 50 -21 97 -47 174 -96 337 -167 546 -238 88 -30 255 -75
333 -89 46 -9 87 -18 90 -20 4 -2 34 -7 67 -11 33 -4 74 -8 90 -11 73 -9 208
-18 302 -18 95 -1 103 1 129 24 36 34 62 94 57 133 -2 18 -4 38 -5 46 -1 8
-38 53 -82 100 -45 47 -99 109 -121 136 -22 28 -45 55 -51 60 -6 6 -26 32 -45
60 -19 27 -38 54 -42 60 -58 73 -218 357 -281 498 l-38 86 54 63 c30 35 64 74
74 87 10 13 24 28 29 35 27 29 118 159 163 232 51 82 159 282 161 297 0 4 10
29 21 55 19 41 75 200 85 242 12 46 35 140 39 161 3 13 7 33 9 44 3 12 8 48
12 80 4 33 10 69 12 80 3 11 6 106 7 210 6 371 -74 732 -226 1028 -18 34 -32
64 -33 67 0 3 -8 16 -17 30 -8 14 -35 59 -58 100 -135 237 -488 631 -704 785
-15 11 -42 32 -59 48 -48 41 -249 176 -362 243 -197 115 -444 228 -686 314
l-136 48 6 -46z"/>
</g>
</svg>
